<?xml version="1.0" encoding="UTF-8"?>
<svg version="1.1" xmlns="http://www.w3.org/2000/svg" width="1536" height="1024">
<path d="M0 0 C506.88 0 1013.76 0 1536 0 C1536 337.92 1536 675.84 1536 1024 C1029.12 1024 522.24 1024 0 1024 C0 686.08 0 348.16 0 0 Z " fill="#FDFDFD" transform="translate(0,0)"/>
<path d="M0 0 C11.14175526 7.80800172 14.84095581 20.99238481 17.45703125 33.68359375 C18.26520277 39.20420204 18.07643122 44.82633804 17.984375 50.390625 C18.84305176 50.23126465 19.70172852 50.0719043 20.58642578 49.90771484 C38.86985245 47.12539715 59.49919735 47.32978382 74.984375 58.390625 C79.38860126 62.19968555 79.78344819 64.41484467 80.359375 70.078125 C80.13231744 78.88471455 73.94238649 85.0372364 67.95703125 90.88012695 C53.50127014 104.46467032 34.95232851 115.17929037 16.234375 121.578125 C11.73100855 123.22310825 11.73100855 123.22310825 8.3671875 126.4375 C7.25745955 129.06987792 6.62420112 131.60592722 5.984375 134.390625 C5.36782306 136.33855671 4.70904908 138.26905563 4.04541016 140.20141602 C3.38835031 142.11858102 2.75989446 144.04547761 2.1328125 145.97265625 C1.17344339 148.82792145 0.13899935 151.60999296 -1.015625 154.390625 C18.25432399 162.89249261 18.25432399 162.89249261 38.921875 165.828125 C39.75203125 165.85068359 40.5821875 165.87324219 41.4375 165.89648438 C45.21137395 165.88104299 47.33372892 165.83378952 50.5078125 163.671875 C53.28529943 159.38073117 52.89338814 155.29563549 51.984375 150.390625 C49.06296271 143.25869586 45.01652701 136.87388075 39.953125 131.07421875 C38.984375 129.390625 38.984375 129.390625 39.203125 127.30078125 C39.984375 125.390625 39.984375 125.390625 41.984375 123.390625 C45.23531276 123.71637027 46.74633817 124.79552588 48.796875 127.265625 C56.0465123 136.24049244 63.94436138 147.17546481 63.3046875 159.22265625 C62.56399795 164.23585991 61.24562349 168.05930715 57.734375 171.765625 C48.43665152 177.25973433 36.43757869 176.43492004 26.140625 174.26953125 C12.75587947 170.54234345 0.18829509 164.96451004 -12.015625 158.390625 C-12.70849609 158.02146973 -13.40136719 157.65231445 -14.11523438 157.27197266 C-21.59261246 153.26818901 -28.72320073 149.36979327 -35.0234375 143.60546875 C-38.4104332 141.54006549 -41.65741346 142.09910643 -45.41796875 142.90625 C-46.25457031 143.14859375 -47.09117188 143.3909375 -47.953125 143.640625 C-54.14847764 145.27507733 -60.39138345 146.42142249 -66.703125 147.515625 C-68.16383423 147.77134277 -68.16383423 147.77134277 -69.65405273 148.03222656 C-79.89307738 149.78266565 -89.68014685 150.55125485 -100.078125 150.515625 C-101.77678711 150.52142578 -101.77678711 150.52142578 -103.50976562 150.52734375 C-114.5154585 150.51452407 -126.33565342 150.26243367 -135.08203125 142.57421875 C-139.21305427 137.8061223 -140.45767822 134.49086687 -140.33984375 128.1640625 C-139.08151428 117.40003934 -130.18450256 108.50110081 -122.15722656 101.85107422 C-115.74430553 96.82016502 -109.14516897 92.3392955 -102.015625 88.390625 C-102.60021488 84.34641305 -104.71468055 81.92515749 -107.203125 78.765625 C-115.15027092 68.42992372 -124.11072716 55.50571033 -124.203125 42.015625 C-124.21730469 41.07976562 -124.23148438 40.14390625 -124.24609375 39.1796875 C-123.92279549 35.26723058 -123.06898512 32.51354663 -120.359375 29.625 C-119.7509375 29.13515625 -119.1425 28.6453125 -118.515625 28.140625 C-117.60296875 27.39039063 -117.60296875 27.39039063 -116.671875 26.625 C-110.9312844 22.34663531 -100.74575087 23.75322439 -93.90673828 24.67480469 C-80.46909443 27.10734104 -68.04253519 33.12660928 -56.015625 39.390625 C-57.665625 41.700625 -59.315625 44.010625 -61.015625 46.390625 C-65.10276466 45.76703568 -68.31802332 44.40381583 -72.015625 42.578125 C-78.52110077 39.49931053 -85.08324909 37.29190953 -92.015625 35.390625 C-92.99015625 35.10251953 -92.99015625 35.10251953 -93.984375 34.80859375 C-100.19339297 33.5309689 -106.87998225 33.06088517 -112.328125 36.453125 C-114.90091977 40.93169368 -114.40931503 44.77990283 -113.203125 49.71484375 C-107.22924697 66.6342812 -95.84121139 79.41714648 -83.765625 92.328125 C-83.07984375 93.06248779 -82.3940625 93.79685059 -81.6875 94.5534668 C-78.3112679 98.12299148 -74.9752044 101.45163486 -71.015625 104.390625 C-70.90605469 103.57980469 -70.79648438 102.76898438 -70.68359375 101.93359375 C-69.62865787 94.56619601 -68.15807934 87.51785645 -66.015625 80.390625 C-67.05203125 80.90753906 -68.0884375 81.42445313 -69.15625 81.95703125 C-70.52574016 82.62301619 -71.89554868 83.28834675 -73.265625 83.953125 C-73.94753906 84.29537109 -74.62945313 84.63761719 -75.33203125 84.99023438 C-79.03731409 86.77092856 -81.09433978 87.6964584 -85.015625 86.390625 C-85.345625 84.410625 -85.675625 82.430625 -86.015625 80.390625 C-83.83185734 79.25785232 -81.64405372 78.13439711 -79.453125 77.015625 C-78.84404297 76.69851563 -78.23496094 76.38140625 -77.60742188 76.0546875 C-74.36608776 74.40829557 -71.86508782 73.36169947 -68.234375 72.6640625 C-64.65310381 71.6680318 -64.65310381 71.6680318 -63.30078125 67.828125 C-62.87143144 66.35513774 -62.46489565 64.87536107 -62.078125 63.390625 C-59.83711233 56.03007091 -57.14188064 49.43796517 -51.015625 44.390625 C-49.695625 44.390625 -48.375625 44.390625 -47.015625 44.390625 C-49.30418745 52.0711793 -51.65116169 59.73312454 -54.015625 67.390625 C-52.92121094 66.93623047 -52.92121094 66.93623047 -51.8046875 66.47265625 C-43.09940043 62.97979415 -34.32010662 60.35687675 -25.25585938 57.98144531 C-23.13484648 57.42206746 -21.02049768 56.84214717 -18.90625 56.2578125 C-9.3319494 53.67140119 0.12618701 52.31788031 9.984375 51.390625 C7.90026199 28.86733993 7.90026199 28.86733993 -3.46875 10.0703125 C-7.37794487 7.49216251 -10.48927597 7.52629704 -15.015625 8.390625 C-20.88291354 10.84165496 -26.11270722 15.41176773 -30.015625 20.390625 C-30.4796875 21.55658203 -30.4796875 21.55658203 -30.953125 22.74609375 C-32.24967669 25.97317277 -34.06198304 28.42042689 -36.140625 31.203125 C-37.22730469 32.66685547 -37.22730469 32.66685547 -38.3359375 34.16015625 C-38.89023438 34.89621094 -39.44453125 35.63226563 -40.015625 36.390625 C-44.765625 35.640625 -44.765625 35.640625 -47.015625 33.390625 C-46.13163011 22.54327098 -35.36379153 12.22857462 -27.72265625 5.31640625 C-19.34295672 -1.56331264 -10.26894051 -5.65189749 0 0 Z " fill="#E77D2E" transform="translate(1161.015625,302.609375)"/>
<path d="M0 0 C9.57 0 19.14 0 29 0 C27.87486822 11.25131776 27.87486822 11.25131776 27.04785156 15.28417969 C26.77186127 16.64805817 26.77186127 16.64805817 26.49029541 18.03948975 C26.29240417 18.99067688 26.09451294 19.94186401 25.890625 20.921875 C25.68193787 21.94315491 25.47325073 22.96443481 25.25823975 24.0166626 C24.81678382 26.1719145 24.37291687 28.32667382 23.92675781 30.48095703 C23.26067752 33.69842279 22.60231853 36.91738922 21.9453125 40.13671875 C19.48085863 52.15796628 16.86919494 64.1373834 14.12060547 76.09667969 C12.65812441 82.46684924 11.29030487 88.85565964 9.9375 95.25 C7.68129902 105.84644973 5.37073665 116.42866976 3 127 C2.34 129.97 1.68 132.94 1 136 C-7.91 136 -16.82 136 -26 136 C-26 133.03 -26 130.06 -26 127 C-26.67804688 127.45890625 -27.35609375 127.9178125 -28.0546875 128.390625 C-41.72118553 137.40067079 -54.28674273 140.73806761 -70.625 138.3125 C-79.96727518 136.38282778 -86.53143871 131.78675575 -92 124 C-98.50475111 112.61668555 -97.4739699 95.49147783 -94.4375 83.125 C-89.45910991 67.16995121 -81.27332472 53.17496661 -66.19921875 45.10546875 C-65.47347656 44.74066406 -64.74773438 44.37585938 -64 44 C-62.515 43.13375 -62.515 43.13375 -61 42.25 C-48.10588361 36.8774515 -31.82755899 37.33839137 -18.76171875 41.734375 C-15.59301299 43.18651173 -12.84752999 44.9978962 -10 47 C-9.86464844 46.03707031 -9.72929688 45.07414063 -9.58984375 44.08203125 C-7.35223399 29.14893032 -3.62896052 14.65278397 0 0 Z " fill="#263B5C" transform="translate(658,493)"/>
<path d="M0 0 C36.3 0 72.6 0 110 0 C105.43761639 20.53072626 105.43761639 20.53072626 96 28 C90.52483512 32.62274124 85.36984075 37.4969345 80.33056641 42.58764648 C79.61084656 43.31043289 78.89112671 44.0332193 78.14959717 44.77790833 C76.60222788 46.33238009 75.05599038 47.88797916 73.51079178 49.44460869 C71.06760399 51.90529548 68.62079463 54.36232769 66.17294312 56.81837463 C59.21924049 63.79645108 52.27132605 70.7802705 45.32763672 77.76831055 C41.06920016 82.05344188 36.80597638 86.33376101 32.53971481 90.61110115 C30.91504937 92.2419905 29.29228585 93.87477673 27.67143631 95.50945854 C25.4164627 97.78352682 23.15550839 100.05148068 20.89306641 102.31811523 C20.22087067 102.99907257 19.54867493 103.68002991 18.85610962 104.38162231 C18.24227417 104.99415359 17.62843872 105.60668488 16.9960022 106.23777771 C16.46253489 106.77438743 15.92906757 107.31099714 15.37943459 107.86386776 C14 109 14 109 12 109 C12 109.66 12 110.32 12 111 C35.43 111 58.86 111 83 111 C80 128 80 128 79 132 C42.7 132 6.4 132 -31 132 C-30.67 129.03 -30.34 126.06 -30 123 C-29.90976562 121.60007812 -29.81953125 120.20015625 -29.7265625 118.7578125 C-27.97042417 111.30958675 -20.71628246 105.97067305 -15.375 100.875 C-14.19766031 99.72424854 -13.02186459 98.57191521 -11.84765625 97.41796875 C-7.47522554 93.14532237 -3.09631685 88.92350101 1.55810547 84.95727539 C7.83087648 79.50128163 13.60610799 73.51670514 19.46875 67.62890625 C20.75747072 66.33831715 22.04641485 65.0479511 23.33557129 63.75779724 C26.70457828 60.38499816 30.07056955 57.00920538 33.43591309 53.63275146 C37.48695851 49.56960729 41.54179034 45.51024208 45.59597778 41.45023346 C51.73353623 35.30302476 57.86630589 29.15107548 64 23 C30.34 22.505 30.34 22.505 -4 22 C-3 12 -3 12 0 0 Z " fill="#253B5C" transform="translate(360,497)"/>
<path d="M0 0 C4.51410628 4.09305081 6.92884065 7.89439172 8 14 C8.30868024 20.36097162 7.34147748 25.84369102 5.83203125 32.0078125 C5.36989989 33.9650028 4.9084995 35.92236582 4.44775391 37.87988281 C4.20816956 38.88700317 3.96858521 39.89412354 3.72174072 40.9317627 C2.54325491 45.94169775 1.43473715 50.96682894 0.32421875 55.9921875 C-0.11513784 57.9713756 -0.55459079 59.95054231 -0.99414062 61.9296875 C-1.43360605 63.91145561 -1.87305904 65.89322647 -2.3125 67.875 C-2.77143368 69.94271959 -3.23041786 72.01042796 -3.68945312 74.078125 C-4.79363896 79.05193506 -5.8968022 84.02597029 -7 89 C-15.58 89 -24.16 89 -33 89 C-33 82 -33 82 -32 80 C-32.64324219 80.45890625 -33.28648437 80.9178125 -33.94921875 81.390625 C-48.59931162 91.33847693 -64.87849399 94.04336912 -82.17578125 90.7421875 C-90.04449156 88.67433832 -94.57307242 85.11804129 -98.90625 78.28125 C-102.5339201 70.71496664 -101.34670311 62.43293081 -99.03125 54.671875 C-95.7230318 46.1005824 -88.55640887 39.60761293 -80.328125 35.74609375 C-77.55737979 34.68554015 -74.86658059 33.77050765 -72 33 C-71.38382813 32.82049805 -70.76765625 32.64099609 -70.1328125 32.45605469 C-60.90479004 30.15715805 -51.31150029 30.78482068 -41.875 30.875 C-40.04167155 30.8850483 -38.20833777 30.89417088 -36.375 30.90234375 C-31.91653366 30.92421436 -27.45832642 30.95864261 -23 31 C-22.89205723 28.73020335 -22.81443824 26.45894804 -22.75 24.1875 C-22.70359375 22.92292969 -22.6571875 21.65835938 -22.609375 20.35546875 C-22.65818812 16.97156934 -22.65818812 16.97156934 -24.81933594 15.12573242 C-31.12452313 11.87078189 -36.86450131 11.76841602 -43.75 12.1875 C-44.66088379 12.23648438 -45.57176758 12.28546875 -46.51025391 12.3359375 C-55.0989465 12.87022631 -63.51528797 14.14300654 -71.97949219 15.65234375 C-74.97786682 16.16825548 -77.98594177 16.58646167 -81 17 C-80.60930292 12.15535615 -80.04106758 7.37618089 -79 2.625 C-78.835 1.81289063 -78.67 1.00078125 -78.5 0.1640625 C-75.29746404 -4.45626281 -68.54543873 -4.97068095 -63.30078125 -5.94921875 C-44.2942101 -8.92654099 -16.32556579 -12.87944423 0 0 Z " fill="#263C5D" transform="translate(779,540)"/>
<path d="M0 0 C9.9 0 19.8 0 30 0 C27.69855969 13.80864185 27.69855969 13.80864185 26.265625 20.53515625 C26.02764946 21.66657295 26.02764946 21.66657295 25.78486633 22.82084656 C25.27604253 25.23533247 24.7632985 27.64896175 24.25 30.0625 C23.89442425 31.74185655 23.53887439 33.42121859 23.18334961 35.10058594 C21.01439979 45.32534537 18.81458556 55.54321647 16.5625 65.75 C16.3159668 66.872854 16.06943359 67.99570801 15.81542969 69.15258789 C15.58887695 70.16957764 15.36232422 71.18656738 15.12890625 72.234375 C14.93369385 73.11319336 14.73848145 73.99201172 14.53735352 74.89746094 C14 77 14 77 13 79 C19.76653776 77.76651655 23.2115599 74.52508632 28 69.75 C29.49699039 68.29906073 30.99439467 66.84854839 32.4921875 65.3984375 C33.24209961 64.66463867 33.99201172 63.93083984 34.76464844 63.17480469 C38.17258303 59.85917763 41.6458209 56.6155159 45.125 53.375 C45.71539063 52.82038086 46.30578125 52.26576172 46.9140625 51.69433594 C48.04937547 50.63191522 49.19734141 49.58283815 50.3581543 48.54833984 C52.03162012 47.04279256 52.03162012 47.04279256 53.37036133 45.28369141 C56.27820004 42.00144249 58.32734537 41.08460899 62.73828125 40.52978516 C67.30972334 40.33547082 71.86675416 40.47609137 76.4375 40.625 C78.04356996 40.655129 79.64969417 40.68249966 81.25585938 40.70703125 C85.17192219 40.77281795 89.0853602 40.87616923 93 41 C87.58102247 47.56864274 87.58102247 47.56864274 84.3125 50.3125 C81.16533642 52.99736836 78.0677286 55.72443603 75 58.5 C71.49474924 61.66055893 67.97781988 64.8039815 64.4140625 67.8984375 C62.35954985 69.68699382 60.31541355 71.48624593 58.2734375 73.2890625 C56.9115993 74.4845356 55.5496187 75.67984651 54.1875 76.875 C53.52854736 77.45926758 52.86959473 78.04353516 52.19067383 78.64550781 C51.56443115 79.19303711 50.93818848 79.74056641 50.29296875 80.3046875 C49.7311792 80.79952637 49.16938965 81.29436523 48.59057617 81.80419922 C47 83 47 83 44 84 C44.99487733 85.60734868 45.99631486 87.21063645 47 88.8125 C47.556875 89.70582031 48.11375 90.59914063 48.6875 91.51953125 C50.56471951 94.41839394 52.58637403 97.1960141 54.62890625 99.98046875 C59.11130669 106.10544602 63.40583103 112.34766253 67.66625977 118.62792969 C68.95656058 120.52806924 70.25260639 122.42420859 71.54882812 124.3203125 C72.37534907 125.53622113 73.20153395 126.75235827 74.02734375 127.96875 C74.76718506 129.05607422 75.50702637 130.14339844 76.26928711 131.26367188 C78 134 78 134 79 137 C74.28643987 137.24850467 69.57673554 137.42920182 64.8581543 137.54931641 C63.25624158 137.59940142 61.6547815 137.66749983 60.05444336 137.75439453 C46.83632603 138.45376582 46.83632603 138.45376582 42.57885742 135.08325195 C40.74188092 132.47863707 39.37479222 129.87283314 38 127 C36.91766024 125.30660713 35.81220733 123.62775389 34.68359375 121.96484375 C33.59972654 120.29024939 32.51769138 118.6144678 31.4375 116.9375 C30.35340036 115.25876846 29.26876795 113.58038086 28.18359375 111.90234375 C27.40024658 110.68780518 27.40024658 110.68780518 26.60107422 109.44873047 C24.47912715 106.20336159 22.2891833 103.00550907 20.08618164 99.81469727 C19 98 19 98 19 96 C16.03 96 13.06 96 10 96 C7.24843489 109.65168211 4.52631851 123.30469439 2 137 C-8.23 137 -18.46 137 -29 137 C-28.01 132.38 -27.02 127.76 -26 123 C-25.32182855 119.70026617 -24.64822453 116.40022628 -23.984375 113.09765625 C-23.62059161 111.2989443 -23.25656879 109.50028075 -22.89233398 107.70166016 C-22.70613495 106.78185364 -22.51993591 105.86204712 -22.32809448 104.91436768 C-19.251697 89.73781989 -16.0756384 74.59900492 -12.60571289 59.50732422 C-10.18167106 48.92494804 -7.91687797 38.31238727 -5.6875 27.6875 C-5.51628632 26.87226868 -5.34507263 26.05703735 -5.16867065 25.21710205 C-4.6778717 22.87801174 -4.18817462 20.53869499 -3.69921875 18.19921875 C-3.48558685 17.17762413 -3.48558685 17.17762413 -3.26763916 16.13539124 C-2.14868764 10.76235361 -1.07645068 5.38225339 0 0 Z " fill="#EB7F2B" transform="translate(1019,493)"/>
<path d="M0 0 C7.04189935 5.91043138 11.02376293 12.28191277 11.86328125 21.58203125 C11.89862677 32.0796514 10.35233332 40.51100008 8.5625 51.25 C-15.5275 51.25 -39.6175 51.25 -64.4375 51.25 C-63.44125722 61.69835656 -63.44125722 61.69835656 -57.84375 69.61328125 C-45.2154485 75.90155433 -28.54272637 72.27428301 -15.4375 69.25 C-14.15617188 68.96382812 -12.87484375 68.67765625 -11.5546875 68.3828125 C-8.51021607 67.69238161 -5.47203609 66.9826534 -2.4375 66.25 C-2.83312121 71.61170846 -3.23456813 76.2934033 -5.4375 81.25 C-5.79496185 83.24582868 -6.13083686 85.24573734 -6.4375 87.25 C-9.55938705 88.07477802 -12.68547115 88.8824564 -15.8125 89.6875 C-16.68261719 89.91759766 -17.55273438 90.14769531 -18.44921875 90.38476562 C-36.82006709 95.07953798 -60.08659618 96.48165649 -77.4296875 87.7421875 C-84.60177105 83.16652589 -88.91570384 76.88575273 -92.4375 69.25 C-96.30741499 51.06139953 -92.09693733 32.8004563 -82.4375 17.25 C-80.33430028 14.26541503 -78.08502486 11.75579441 -75.4375 9.25 C-74.78394531 8.57710937 -74.13039063 7.90421875 -73.45703125 7.2109375 C-56.17655699 -9.59739265 -20.26816331 -13.76279735 0 0 Z " fill="#E97F2C" transform="translate(977.4375,538.75)"/>
<path d="M0 0 C0.82371094 0.42410156 1.64742187 0.84820313 2.49609375 1.28515625 C10.17695191 5.81295277 14.65241106 12.45945018 17 21 C18.21027699 32.65243423 15.58330675 42.37511961 13 54 C-10.76 54 -34.52 54 -59 54 C-57.92222021 64.94983789 -57.92222021 64.94983789 -52 72 C-46.30823544 74.54118396 -41.69946353 75.49216493 -35.5 75.375 C-34.33694336 75.36303589 -34.33694336 75.36303589 -33.15039062 75.35083008 C-22.45038744 75.09290689 -12.05779195 72.95399213 -1.91796875 69.55078125 C0 69 0 69 3 69 C0.95713934 84.03237086 0.95713934 84.03237086 -2 90 C-5.41079373 92.4042249 -8.91796919 92.55468755 -13 93 C-14.3773243 93.25875368 -15.75226779 93.53039723 -17.125 93.8125 C-34.25270659 97.22898104 -56.33257429 99.08144709 -72 90 C-79.76481134 84.42438657 -85.20864475 78.00362117 -87.60546875 68.6328125 C-90.24971473 50.98705221 -86.21351475 32.8360502 -75.79785156 18.32519531 C-59.45358377 -2.54397717 -24.37518633 -12.72265823 0 0 Z " fill="#263C5C" transform="translate(539,536)"/>
<path d="M0 0 C37.95 0 75.9 0 115 0 C113.68 5.61 112.36 11.22 111 17 C110.505 19.475 110.505 19.475 110 22 C96.14 22 82.28 22 68 22 C67.67 24.97 67.34 27.94 67 31 C66.63337449 33.09720489 66.23590393 35.18936675 65.80078125 37.2734375 C65.4459668 38.98394287 65.4459668 38.98394287 65.08398438 40.72900391 C64.82939453 41.93218262 64.57480469 43.13536133 64.3125 44.375 C63.91321289 46.28224854 63.91321289 46.28224854 63.50585938 48.22802734 C60.78633068 61.17761806 57.90163619 74.09022515 55 87 C53.93480519 91.74940071 52.87226289 96.49938428 51.8125 101.25 C51.56089111 102.37744629 51.30928223 103.50489258 51.05004883 104.66650391 C49.44734444 111.88483994 47.92995939 119.11221264 46.54296875 126.375 C46 129 46 129 45 132 C34.77 132 24.54 132 14 132 C14.58819108 127.29447136 15.13827671 122.93679488 16.12890625 118.359375 C16.4683728 116.7810791 16.4683728 116.7810791 16.81469727 115.17089844 C17.06147217 114.04200195 17.30824707 112.91310547 17.5625 111.75 C17.82281006 110.54633789 18.08312012 109.34267578 18.35131836 108.10253906 C20.71737043 97.2014291 23.14994652 86.31506026 25.58093262 75.42828369 C28.11217622 64.08801281 30.56130809 52.73450449 32.89453125 41.3515625 C34.22850386 34.89381523 35.61834697 28.44771414 37 22 C23.14 22 9.28 22 -5 22 C-3.35 14.74 -1.7 7.48 0 0 Z " fill="#EB7F2B" transform="translate(805,497)"/>
<path d="M0 0 C0 0.99 0 1.98 0 3 C-2.4140625 5.05078125 -2.4140625 5.05078125 -5.625 7.3125 C-9.13772911 9.78965832 -12.26978856 12.0998772 -14.875 15.5625 C-20.00532519 19.56415365 -25.73947518 18.54649885 -32 18 C-33.0615329 17.83195862 -34.1230658 17.66391724 -35.21676636 17.49078369 C-39.18626139 16.97583706 -43.07294232 16.84503853 -47.06689453 16.83886719 C-48.23419082 16.83153879 -48.23419082 16.83153879 -49.42506886 16.82406235 C-51.99432301 16.80969913 -54.56352605 16.80286511 -57.1328125 16.796875 C-58.9510552 16.78991577 -60.76929759 16.78287473 -62.58753967 16.77575684 C-68.43336226 16.75625699 -74.2791485 16.75157507 -80.125 16.75 C-81.11655216 16.74941086 -82.10810432 16.74882172 -83.12970352 16.74821472 C-111.6762267 16.73619908 -140.01361786 17.04522073 -168.45135498 19.76245117 C-172.16648401 20.10872323 -175.88434347 20.42049328 -179.6023407 20.73422241 C-207.04281087 23.05006344 -234.29572583 26.15238871 -261.5625 30 C-262.45841858 30.12574402 -263.35433716 30.25148804 -264.27740479 30.38104248 C-274.85845212 31.87192316 -285.35642565 33.55303266 -295.84744263 35.58966064 C-299.06038709 36.20214028 -302.27979708 36.77737752 -305.49916077 37.35501099 C-328.57083898 41.49784998 -351.51391364 46.06398299 -374.375 51.25 C-375.48217377 51.49998749 -376.58934753 51.74997498 -377.73007202 52.00753784 C-389.57487458 54.69069756 -401.32907115 57.55066099 -413.00927734 60.87890625 C-418.84170022 62.53558464 -424.73372318 63.94515026 -430.625 65.375 C-447.36198473 69.50367661 -463.89200906 74.18359865 -480.203125 79.765625 C-484.74852053 81.24334618 -489.33399146 82.52993893 -493.9375 83.8125 C-503.0952256 86.36577867 -512.10033772 89.29131509 -521.09350586 92.37231445 C-522.05264893 92.6993335 -523.01179199 93.02635254 -524 93.36328125 C-525.2684375 93.80087769 -525.2684375 93.80087769 -526.5625 94.24731445 C-529.02567642 95.00792872 -531.4651527 95.53914439 -534 96 C-531.55259014 93.16237876 -529.09773534 92.00841057 -525.64453125 90.6171875 C-524.56091309 90.17721436 -523.47729492 89.73724121 -522.36083984 89.28393555 C-520.60441162 88.58651245 -520.60441162 88.58651245 -518.8125 87.875 C-517.58998535 87.38491455 -516.3674707 86.8948291 -515.10791016 86.38989258 C-511.41094391 84.91198862 -507.70636827 83.4541659 -504 82 C-503.02305176 81.61537598 -502.04610352 81.23075195 -501.03955078 80.83447266 C-487.06282715 75.36858881 -472.88161031 70.49015281 -458.6875 65.625 C-457.34712677 65.16436661 -457.34712677 65.16436661 -455.97967529 64.69442749 C-446.71518541 61.51610429 -437.48985709 58.44446661 -428 56 C-425.36815532 55.25094836 -422.74786547 54.46792316 -420.125 53.6875 C-418.65379029 53.25341634 -417.1824289 52.81984656 -415.7109375 52.38671875 C-413.31393368 51.68115315 -410.91696456 50.97548836 -408.52050781 50.26806641 C-397.40995495 46.99887686 -386.27841666 44.02063373 -374.99609375 41.40625 C-370.49899261 40.36201958 -366.01594213 39.2683936 -361.53515625 38.15625 C-285.27580015 19.25008708 -207.33498134 7.62624071 -129 2 C-128.15864502 1.93834656 -127.31729004 1.87669312 -126.45043945 1.81317139 C-84.41260308 -1.23443509 -42.11731977 -0.19339988 0 0 Z " fill="#EC812F" transform="translate(1044,386)"/>
<path d="M0 0 C0.35588419 12.50867023 -0.21896702 24.25284894 -2.59960938 36.54101562 C-3.02599516 39.15964835 -3.23436897 41.74470651 -3.421875 44.390625 C-4.37187269 54.59089123 -4.37187269 54.59089123 -7 59 C-11.66157367 62.83591223 -17.65526116 64.01857846 -23.41650391 65.35107422 C-27.52449511 66.38292459 -31.42235017 67.93044044 -35.375 69.4375 C-43.87939547 72.62455156 -43.87939547 72.62455156 -48 72 C-49.78125 70.8203125 -49.78125 70.8203125 -51.5 69.125 C-55.59894784 65.28419201 -59.94130419 61.91575973 -64.43164062 58.55322266 C-71.05436665 53.54613747 -71.05436665 53.54613747 -73 51 C-73.19029065 46.99236366 -72.23776991 43.19551783 -71.42724609 39.27783203 C-70.95010953 36.7340125 -70.6289714 34.1882197 -70.30078125 31.62109375 C-68.23150372 17.82390974 -68.23150372 17.82390974 -63.02734375 13.5703125 C-59.54819796 12.21670162 -56.30521379 11.30122171 -52.65966797 10.56884766 C-49.61591852 9.91785296 -46.6523153 9.08759996 -43.66015625 8.23046875 C-37.13465295 6.37110966 -30.58019329 4.65442339 -24 3 C-23.21657227 2.80212891 -22.43314453 2.60425781 -21.62597656 2.40039062 C-14.23810271 0.5683383 -7.59047222 -0.14344642 0 0 Z " fill="#FCFBF9" transform="translate(1170,363)"/>
<path d="M0 0 C-1.41354779 7.5659709 -2.86979047 15.12246208 -4.359375 22.67382812 C-4.9101186 25.53332918 -5.41764355 28.3950621 -5.90625 31.265625 C-8.05506177 43.06082876 -8.05506177 43.06082876 -13.0625 47.25 C-15.453125 48.70703125 -15.453125 48.70703125 -18 50 C-18.86109375 50.49886719 -19.7221875 50.99773438 -20.609375 51.51171875 C-27.93142708 55.37378379 -35.06273406 56.3988882 -43.171875 54.48828125 C-47.31485149 52.95679635 -49.68416379 50.68818359 -52 47 C-55.8710381 37.25951786 -54.96573872 26.44160131 -51.26171875 16.78515625 C-47.1360524 7.67803518 -42.44978127 -0.05771509 -32.8125 -3.8125 C-20.66894054 -7.59492016 -11.27278647 -5.82400112 0 0 Z " fill="#FBFBFC" transform="translate(645,557)"/>
<path d="M0 0 C0.70229862 0.00026688 1.40459724 0.00053375 2.12817764 0.00080872 C18.04596482 0.01039623 33.92660072 0.16460448 49.8125 1.25 C49.49555176 2.02432373 49.17860352 2.79864746 48.85205078 3.59643555 C47.87451975 6.09168796 47.23458239 8.44432001 46.6875 11.0625 C46.51992188 11.85269531 46.35234375 12.64289063 46.1796875 13.45703125 C46.05851562 14.04871094 45.93734375 14.64039063 45.8125 15.25 C43.9871875 15.2809375 43.9871875 15.2809375 42.125 15.3125 C41.44050781 15.32410156 40.75601562 15.33570313 40.05078125 15.34765625 C37.8125 15.25 37.8125 15.25 35.63232422 14.77514648 C32.23364769 14.14219815 28.90911914 13.94277474 25.45703125 13.75 C24.75535324 13.70939453 24.05367523 13.66878906 23.33073425 13.62695312 C21.0956647 13.49796894 18.86037268 13.37361063 16.625 13.25 C13.69385491 13.08596609 10.76287729 12.91929224 7.83203125 12.75 C7.11785538 12.70929382 6.4036795 12.66858765 5.66786194 12.62664795 C2.08009653 12.41441578 -1.47892339 12.13213101 -5.046875 11.703125 C-13.07283595 10.85113709 -21.18764878 11.00604901 -29.25 11 C-30.18989777 10.99899292 -31.12979553 10.99798584 -32.09817505 10.99694824 C-121.02956292 11.05990524 -214.83250311 19.8841394 -300.73217773 43.81884766 C-303.27519546 44.26539924 -304.76990064 44.08258351 -307.1875 43.25 C-298.64272054 40.54178519 -290.07530664 38.09287258 -281.375 35.9375 C-280.18068359 35.64045166 -278.98636719 35.34340332 -277.75585938 35.03735352 C-265.23117379 31.95882727 -252.64102824 29.20066743 -240.02880859 26.50738525 C-235.75906429 25.59395672 -231.49719149 24.65007601 -227.23828125 23.6875 C-208.84230491 19.5644247 -190.33969761 16.44903976 -171.70690918 13.63146973 C-169.16386418 13.24642124 -166.62148413 12.85716914 -164.07910156 12.46777344 C-138.0941986 8.51049105 -112.11058608 5.66869473 -85.90234375 3.68798828 C-82.1768303 3.40603235 -78.45326926 3.10822376 -74.73046875 2.79248047 C-49.81266137 0.68397678 -24.99525354 -0.02065282 0 0 Z " fill="#305271" transform="translate(963.1875,412.75)"/>
<path d="M0 0 C1.55030118 1.55030118 1.24405099 3.03676001 1.3125 5.1875 C1.16686328 12.89410987 -3.93982478 17.45686139 -9.2109375 22.58203125 C-19.50702574 31.50819178 -43.21893913 50 -57 50 C-56.5492459 45.86808738 -56.01426494 41.85937454 -55.0625 37.8125 C-52.62112546 27.22208425 -51.59704077 16.51219319 -50.875 5.6875 C-50.78863281 4.45837891 -50.70226563 3.22925781 -50.61328125 1.96289062 C-50.40405175 -1.02444164 -50.1996911 -4.01201764 -50 -7 C-33.70598186 -9.71935445 -13.83225455 -10.14227904 0 0 Z " fill="#FDFCFA" transform="translate(1229,368)"/>
<path d="M0 0 C3.44893844 1.47971211 5.64482454 3.42359532 8.2578125 6.09765625 C9.04800781 6.89880859 9.83820313 7.69996094 10.65234375 8.52539062 C11.46832031 9.36263672 12.28429688 10.19988281 13.125 11.0625 C14.75038706 12.72222622 16.37788627 14.37988747 18.0078125 16.03515625 C18.72598145 16.7712915 19.44415039 17.50742676 20.18408203 18.26586914 C21.89521545 20.07023007 21.89521545 20.07023007 24 21 C23.34 29.58 22.68 38.16 22 47 C15.95494023 48.20901195 10.11431433 48.18601707 3.98242188 48.18530273 C1.90213002 48.18747171 -0.17761548 48.20560425 -2.2578125 48.22460938 C-24.22441523 48.32080868 -24.22441523 48.32080868 -33 41 C-34.72104146 37.55791707 -34.87070247 34.66855975 -34 31 C-26.97893616 18.41050622 -15.16669353 10.14506703 -3.30078125 2.49609375 C-1.12583401 1.19494371 -1.12583401 1.19494371 0 0 Z " fill="#FCFCFB" transform="translate(1065,396)"/>
<path d="M0 0 C8.97231944 3.13976934 17.59896083 7.32108352 26.01904297 11.70654297 C24.36904297 14.01654297 22.71904297 16.32654297 21.01904297 18.70654297 C16.93190331 18.08295365 13.71664465 16.7197338 10.01904297 14.89404297 C3.5135672 11.8152285 -3.04858113 9.6078275 -9.98095703 7.70654297 C-10.63064453 7.51447266 -11.28033203 7.32240234 -11.94970703 7.12451172 C-18.15872501 5.84688687 -24.84531428 5.37680314 -30.29345703 8.76904297 C-32.86625181 13.24761165 -32.37464706 17.0958208 -31.16845703 22.03076172 C-25.194579 38.95019917 -13.80654342 51.73306445 -1.73095703 64.64404297 C-1.04517578 65.37840576 -0.35939453 66.11276855 0.34716797 66.86938477 C3.73311703 70.44918272 7.11352257 73.68475346 11.01904297 76.70654297 C11.67904297 77.55216797 12.33904297 78.39779297 13.01904297 79.26904297 C15.17416791 81.89560149 17.12529495 82.97373398 20.01904297 84.70654297 C21.40299492 85.88064424 22.75679478 87.09102733 24.08154297 88.33154297 C28.6320039 92.48364705 33.5011613 96.06804717 38.51513672 99.62841797 C40.89130447 101.600526 41.94792931 102.85879167 43.01904297 105.70654297 C40.17107189 107.13052851 38.18205331 106.99478814 35.01904297 106.70654297 C32.27294922 105.13232422 32.27294922 105.13232422 29.58154297 103.01904297 C28.63537109 102.28814453 27.68919922 101.55724609 26.71435547 100.80419922 C25.82490234 100.11197266 24.93544922 99.41974609 24.01904297 98.70654297 C22.66998875 97.78236882 21.31671593 96.86427346 19.95654297 95.95654297 C17.01904297 93.70654297 17.01904297 93.70654297 16.05395508 91.66845703 C14.55366927 88.82432002 12.16940687 88.36529308 9.359375 87.06396484 C4.51314273 84.25308946 0.82363661 79.95477392 -3.04345703 75.95654297 C-3.90261719 75.08771484 -4.76177734 74.21888672 -5.64697266 73.32373047 C-19.5966977 59.12889949 -32.30572322 44.26501846 -39.98095703 25.70654297 C-40.41408203 24.71654297 -40.84720703 23.72654297 -41.29345703 22.70654297 C-42.75269508 16.33895874 -42.992187 9.62145897 -39.98095703 3.70654297 C-38.32470703 1.94091797 -38.32470703 1.94091797 -36.48095703 0.45654297 C-35.56830078 -0.29369141 -35.56830078 -0.29369141 -34.63720703 -1.05908203 C-26.12193379 -7.40537058 -9.36339747 -2.99933972 0 0 Z " fill="#2D516E" transform="translate(1078.98095703125,330.29345703125)"/>
<path d="M0 0 C0.495 0.99 0.495 0.99 1 2 C3.01669827 3.13350534 3.01669827 3.13350534 5 4 C5 5.32 5 6.64 5 8 C3.05078125 9.7890625 3.05078125 9.7890625 0.3125 11.625 C-0.68910156 12.32367188 -1.69070313 13.02234375 -2.72265625 13.7421875 C-3.80417969 14.48726563 -4.88570312 15.23234375 -6 16 C-20.21479008 25.81406488 -20.21479008 25.81406488 -28.6875 40.3984375 C-28.87833494 43.60684997 -28.22407788 45.66836474 -26.4375 48.3125 C-18.38402253 53.8879844 -9.76737981 54.16284021 -0.34375 54.09765625 C0.83785706 54.09553383 0.83785706 54.09553383 2.04333496 54.09336853 C4.52893064 54.08782612 7.01443211 54.07528485 9.5 54.0625 C11.19791535 54.05747754 12.89583214 54.05291595 14.59375 54.04882812 C18.72920229 54.03787564 22.86458524 54.02065166 27 54 C26.97679687 52.865625 26.95359375 51.73125 26.9296875 50.5625 C26.91091186 49.04167332 26.8927136 47.52083943 26.875 46 C26.85824219 45.25621094 26.84148437 44.51242187 26.82421875 43.74609375 C26.77855285 38.49451557 27.54287549 34.0483054 29 29 C31.375 29.1875 31.375 29.1875 34 30 C36.65854658 34.47755214 36.04233967 38.83363775 35.625 43.8125 C35.53992187 44.99489258 35.53992187 44.99489258 35.453125 46.20117188 C35.31249026 48.13489961 35.15766112 50.06758595 35 52 C35.99 51.7834375 36.98 51.566875 38 51.34375 C44.7065647 49.9155394 51.10420204 48.57780829 58 49 C58 49.66 58 50.32 58 51 C58.66 51.33 59.32 51.66 60 52 C60 52.99 60 53.98 60 55 C56.42952254 57.0993843 52.73185414 57.76821813 48.70703125 58.47265625 C48.00156662 58.60063095 47.29610199 58.72860565 46.56925964 58.86045837 C45.07786632 59.12970243 43.58593114 59.39595999 42.09350586 59.65942383 C39.83641078 60.05827473 37.58123465 60.46678476 35.32617188 60.87695312 C23.7277358 62.96992093 12.74007963 64.16544288 0.9375 64.125 C-0.19494141 64.12886719 -1.32738281 64.13273437 -2.49414062 64.13671875 C-13.4998335 64.12389907 -25.32002842 63.87180867 -34.06640625 56.18359375 C-38.19742927 51.4154973 -39.44205322 48.10024187 -39.32421875 41.7734375 C-38.06588928 31.00941434 -29.16887756 22.11047581 -21.14160156 15.46044922 C-15.70824386 11.19800327 -10.15903382 7.15492108 -4.109375 3.8125 C-0.94628945 2.34883797 -0.94628945 2.34883797 0 0 Z " fill="#E77A2A" transform="translate(1060,389)"/>
<path d="M0 0 C4.7248898 2.90762449 8.74564187 6.99128375 11.25 12 C12.1734509 20.04220531 11.67412798 26.21317888 7.03515625 32.96875 C2.91286306 37.65932431 -2.14314038 39.60795004 -8.265625 40.2734375 C-15.09918129 40.5272553 -19.59098651 39.63457477 -24.75 35 C-28.87774707 30.00325355 -30.29450283 25.01766874 -31.25 18.6875 C-30.42727551 12.61990691 -27.39864992 7.4530745 -22.8984375 3.28515625 C-15.83642816 -1.89865912 -8.30393518 -2.21438271 0 0 Z " fill="#E77B28" transform="translate(1140.75,382)"/>
<path d="M0 0 C3.25093776 0.32574527 4.76196317 1.40490088 6.8125 3.875 C14.0621373 12.84986744 21.95998638 23.78483981 21.3203125 35.83203125 C20.57962295 40.84523491 19.26124849 44.66868215 15.75 48.375 C6.45227652 53.86910933 -5.54679631 53.04429504 -15.84375 50.87890625 C-29.22849553 47.15171845 -41.79607991 41.57388504 -54 35 C-54.69287109 34.63084473 -55.38574219 34.26168945 -56.09960938 33.88134766 C-77.21155123 22.57689755 -77.21155123 22.57689755 -80 17 C-76.55503134 15.57449573 -74.66911083 14.92098819 -71 15 C-63.64638287 18.07864744 -56.92635546 22.6376527 -50.84375 27.7734375 C-48.36991226 29.41916854 -45.83067282 30.08719864 -43 31 C-40.74523632 31.92597881 -38.51264627 32.89718978 -36.27734375 33.86914062 C-25.0322712 38.74319347 -15.41329327 42.20603836 -3.0625 42.4375 C-1.81726562 42.47133789 -1.81726562 42.47133789 -0.546875 42.50585938 C3.22699895 42.49041799 5.34935392 42.44316452 8.5234375 40.28125 C11.30092443 35.99010617 10.90901314 31.90501049 10 27 C7.07858771 19.86807086 3.03215201 13.48325575 -2.03125 7.68359375 C-3 6 -3 6 -2.78125 3.91015625 C-2 2 -2 2 0 0 Z " fill="#2A5070" transform="translate(1203,426)"/>
<path d="M0 0 C1.92875977 0.00966797 1.92875977 0.00966797 3.89648438 0.01953125 C5.23437779 0.03623649 6.57226842 0.05316631 7.91015625 0.0703125 C9.27538408 0.08035928 10.64061905 0.08948214 12.00585938 0.09765625 C15.32830824 0.12113645 18.65038946 0.15397891 21.97265625 0.1953125 C21.49468549 2.61222126 21.01532405 5.02884013 20.53515625 7.4453125 C20.40044922 8.12722656 20.26574219 8.80914063 20.12695312 9.51171875 C19.74959 11.40773835 19.36147006 13.30160791 18.97265625 15.1953125 C18.87339844 15.96101562 18.77414062 16.72671875 18.671875 17.515625 C17.57898656 20.14099946 15.74905993 20.6617546 13.22265625 21.8203125 C12.3615625 22.22507812 11.50046875 22.62984375 10.61328125 23.046875 C2.22067546 26.69691361 -9.08185992 29.88818723 -18.0625 26.40625 C-20.75771265 24.67124825 -22.24661713 22.86640243 -24.02734375 20.1953125 C-24.52044379 14.96845203 -23.9723951 11.5653887 -21.02734375 7.1953125 C-14.98176523 1.54027523 -8.19836931 -0.07287439 0 0 Z " fill="#F9FAFA" transform="translate(730.02734375,586.8046875)"/>
<path d="M0 0 C2.97 0 5.94 0 9 0 C9.15855469 1.23234375 9.31710937 2.4646875 9.48046875 3.734375 C11.51081945 20.69157192 11.51081945 20.69157192 20.4375 34.75 C22.68941843 36.37853328 24.06950708 37.01699062 26.8125 37.6875 C40.43276584 34.7497956 47.6500249 24.9672848 54.8515625 13.92822266 C55.90726622 12.28947502 56.95454563 10.64530523 58 9 C60.9375 9.8125 60.9375 9.8125 64 11 C65 14 65 14 63.6640625 16.78515625 C56.42507929 28.42022697 46.81923744 42.7768035 33 47 C26.9962667 47.93985568 21.73739106 48.08455006 16.625 44.5 C14.73828125 42.8125 14.73828125 42.8125 13 41 C12.45730469 40.443125 11.91460938 39.88625 11.35546875 39.3125 C2.53886129 28.9557763 -0.5019887 13.3027006 0 0 Z " fill="#305877" transform="translate(1087,459)"/>
<path d="M0 0 C2.625 2.4375 2.625 2.4375 4 6 C4 10.29 4 14.58 4 19 C-11.18 19 -26.36 19 -42 19 C-39.92222485 10.68889942 -37.72596177 5.3495453 -30.6796875 0.35546875 C-20.65012817 -5.38752974 -10.20944622 -5.90582929 0 0 Z " fill="#F9FAFA" transform="translate(525,554)"/>
<path d="M0 0 C3.0625 2.3125 3.0625 2.3125 5 6 C5 10.62 5 15.24 5 20 C-10.18 20 -25.36 20 -41 20 C-37.74095371 10.22286113 -34.25784909 3.91232809 -25 -1 C-16.55841606 -4.06646264 -8.0950845 -3.98598267 0 0 Z " fill="#FDFCFA" transform="translate(957,553)"/>
<path d="M0 0 C0.66 0.33 1.32 0.66 2 1 C4.12603672 7.37811015 4.23079638 15.38644508 1.25 21.5 C0.265625 23.21875 0.265625 23.21875 -1 25 C-1.5465625 25.81082031 -2.093125 26.62164063 -2.65625 27.45703125 C-5.65757509 30.71346897 -8.79157442 32.30025807 -12.75 34.1875 C-13.76707031 34.70086914 -13.76707031 34.70086914 -14.8046875 35.22460938 C-22.53636568 39.00960392 -29.42320623 40.31823799 -38 40.125 C-39.16208984 40.11146484 -39.16208984 40.11146484 -40.34765625 40.09765625 C-42.23190843 40.07439388 -44.11599832 40.0385364 -46 40 C-46 39.67 -46 39.34 -46 39 C-45.15179687 38.93683594 -44.30359375 38.87367188 -43.4296875 38.80859375 C-30.54423583 37.46340923 -19.66119576 32.98961425 -10.765625 23.25390625 C-6.67737344 18.03505415 -4.63392212 12.36741589 -2.7109375 6.078125 C-1.97846536 3.93705259 -1.0539619 1.99982515 0 0 Z " fill="#EA7F32" transform="translate(1153,487)"/>
<path d="M0 0 C-0.64016973 5.13756468 -2.19700333 9.58790181 -4.0625 14.375 C-4.34416016 15.11105469 -4.62582031 15.84710938 -4.91601562 16.60546875 C-5.60566618 18.4055736 -6.30213932 20.2030621 -7 22 C-11.70454138 21.03176407 -15.23142825 18.5936322 -19.25 16.0625 C-19.99507812 15.60681641 -20.74015625 15.15113281 -21.5078125 14.68164062 C-22.21164062 14.24142578 -22.91546875 13.80121094 -23.640625 13.34765625 C-24.28547852 12.94554932 -24.93033203 12.54344238 -25.59472656 12.12915039 C-26.0584668 11.75653076 -26.52220703 11.38391113 -27 11 C-27 10.34 -27 9.68 -27 9 C-22.87685942 7.49485354 -18.75119298 5.99675628 -14.625 4.5 C-13.449375 4.07074219 -12.27375 3.64148438 -11.0625 3.19921875 C-9.38027344 2.59013672 -9.38027344 2.59013672 -7.6640625 1.96875 C-6.10872803 1.40317383 -6.10872803 1.40317383 -4.52197266 0.82617188 C-2 0 -2 0 0 0 Z " fill="#F9F6F4" transform="translate(1160,431)"/>
<path d="M0 0 C-1.37530517 8.07385038 -3.10031645 16.03399365 -5 24 C-8.92132821 22.40927252 -11.5827908 19.71490199 -14.5 16.75 C-14.97308594 16.28464844 -15.44617187 15.81929688 -15.93359375 15.33984375 C-19.13886426 12.11681551 -21.59982787 8.82668953 -24 5 C-22.68 3.68 -21.36 2.36 -20 1 C-19.34 2.65 -18.68 4.3 -18 6 C-14.07513692 5.37802716 -10.88994983 4.15057625 -7.3125 2.4375 C-2.20963173 0 -2.20963173 0 0 0 Z " fill="#F8F6F3" transform="translate(1095,383)"/>
<path d="M0 0 C0.495 2.475 0.495 2.475 1 5 C-7.60765105 7.95795569 -16.17851836 10.86771197 -25 13.125 C-30.09584299 14.43427309 -34.8697051 16.00851951 -39.71484375 18.046875 C-42.10117036 19.04219755 -44.49950001 19.95156903 -46.9375 20.8125 C-47.64777344 21.06644531 -48.35804688 21.32039063 -49.08984375 21.58203125 C-51 22 -51 22 -54 21 C-47.1689247 17.43377687 -40.1426154 14.50840818 -33 11.625 C-31.80697266 11.14184326 -30.61394531 10.65868652 -29.38476562 10.16088867 C-4.20009446 0 -4.20009446 0 0 0 Z " fill="#F08D41" transform="translate(564,460)"/>
<path d="M0 0 C4.47492003 1.11873001 7.11892224 3.18261609 10.625 6 C14.61545796 9.29809838 14.61545796 9.29809838 19 12 C19 12.66 19 13.32 19 14 C17.14874911 14.5106899 15.29381095 15.00802066 13.4375 15.5 C12.40496094 15.7784375 11.37242188 16.056875 10.30859375 16.34375 C7 17 7 17 0 17 C0 11.39 0 5.78 0 0 Z " fill="#F9F6F3" transform="translate(1095,424)"/>
<path d="M0 0 C1.11343492 2.18960006 2.1398586 4.34553301 3.0625 6.625 C5.98597844 10.20861874 9.56787354 10.37745813 14 11 C14 11.33 14 11.66 14 12 C13.07767578 12.14695312 13.07767578 12.14695312 12.13671875 12.296875 C7.14471769 13.13404801 7.14471769 13.13404801 3 15.8125 C1.90521318 18.20734617 1.36166074 20.39604265 1 23 C0.34 23 -0.32 23 -1 23 C-1.3403125 21.3603125 -1.3403125 21.3603125 -1.6875 19.6875 C-2.66253425 15.95774757 -2.66253425 15.95774757 -5.25 14.125 C-8.18277686 12.92522765 -10.85875665 12.36526085 -14 12 C-13.67 11.34 -13.34 10.68 -13 10 C-11.57109694 9.73914549 -10.13057853 9.54032815 -8.6875 9.375 C-5.69766372 8.8036937 -4.40908089 8.52534599 -2.515625 6.09375 C-1.54070058 4.0873838 -0.70361769 2.11577348 0 0 Z " fill="#F1913E" transform="translate(1211,317)"/>
<path d="M0 0 C0.66 0 1.32 0 2 0 C2.13535156 0.62648438 2.27070312 1.25296875 2.41015625 1.8984375 C3.48228668 6.70902233 3.48228668 6.70902233 6.7578125 10.04296875 C8.89503065 10.66366222 8.89503065 10.66366222 12 11 C9 13 9 13 6.5 13.625 C3.0653047 15.51408241 2.64589946 17.70168234 1.48046875 21.3203125 C1.32191406 21.87460937 1.16335938 22.42890625 1 23 C-1 20 -1 20 -1.5625 17.5 C-3.62579861 13.91165458 -6.24685805 13.58094431 -10.1015625 12.48046875 C-10.72804688 12.32191406 -11.35453125 12.16335938 -12 12 C-12 11.67 -12 11.34 -12 11 C-10.39125 10.87625 -10.39125 10.87625 -8.75 10.75 C-4.64396525 9.92879305 -3.37572981 9.38084626 -1 6 C-0.19684346 2.85518209 -0.19684346 2.85518209 0 0 Z " fill="#EC8635" transform="translate(1067,465)"/>
<path d="M0 0 C0.33 0 0.66 0 1 0 C1.10957031 0.62648438 1.21914063 1.25296875 1.33203125 1.8984375 C1.49058594 2.71570313 1.64914062 3.53296875 1.8125 4.375 C1.96332031 5.18710937 2.11414063 5.99921875 2.26953125 6.8359375 C2.87544942 9.35820641 2.87544942 9.35820641 6 11 C7.9896995 11.39013716 9.99019869 11.73202649 12 12 C9.74084717 13.17141258 7.88319162 14.02503037 5.375 14.5625 C2.83348189 15.75948546 2.83348189 15.75948546 2.23828125 18.12890625 C1.73389906 20.41472342 1.31961677 22.68158582 1 25 C0.34 25 -0.32 25 -1 25 C-1.10957031 24.37351562 -1.21914063 23.74703125 -1.33203125 23.1015625 C-1.49058594 22.28429687 -1.64914062 21.46703125 -1.8125 20.625 C-1.96332031 19.81289063 -2.11414063 19.00078125 -2.26953125 18.1640625 C-2.87544942 15.64179359 -2.87544942 15.64179359 -6 14 C-7.9896995 13.60986284 -9.99019869 13.26797351 -12 13 C-12 12.34 -12 11.68 -12 11 C-10.741875 10.979375 -9.48375 10.95875 -8.1875 10.9375 C-5.98193551 10.75489792 -5.98193551 10.75489792 -4 10 C-1.93148252 6.7014061 -1.93148252 6.7014061 -1 3 C-0.67 2.01 -0.34 1.02 0 0 Z " fill="#EE9043" transform="translate(1016,337)"/>
<path d="M0 0 C0 0.66 0 1.32 0 2 C-0.99628418 2.20363159 -0.99628418 2.20363159 -2.01269531 2.41137695 C-5.09235031 3.04242315 -8.17127304 3.67694147 -11.25 4.3125 C-12.34924805 4.5388916 -13.44849609 4.7652832 -14.58105469 4.99853516 C-21.06136846 6.34627904 -27.465911 7.78564105 -33.828125 9.6171875 C-36.21650355 10.0381607 -37.71898643 9.76382565 -40 9 C-31.71870407 6.2978497 -23.34940755 3.94446572 -14.9375 1.6875 C-13.42047485 1.26960205 -13.42047485 1.26960205 -11.87280273 0.84326172 C-10.43336304 0.46258545 -10.43336304 0.46258545 -8.96484375 0.07421875 C-8.1049585 -0.15692627 -7.24507324 -0.38807129 -6.35913086 -0.6262207 C-3.88390184 -1.01839452 -2.35520293 -0.79051241 0 0 Z " fill="#3E5A79" transform="translate(696,447)"/>
<path d="M0 0 C1.11375 1.175625 1.11375 1.175625 2.25 2.375 C4.54433318 4.56504531 6.12158858 5.82731386 9 7 C8.236875 7.2475 7.47375 7.495 6.6875 7.75 C3.73819971 9.12176758 2.82568981 10.3918717 1 13 C0.34 13 -0.32 13 -1 13 C-1.37125 12.1028125 -1.37125 12.1028125 -1.75 11.1875 C-3.16370012 8.71352479 -4.65055383 7.56629745 -7 6 C-6.21625 5.7525 -5.4325 5.505 -4.625 5.25 C-1.67682892 3.84610901 -1.0975223 2.99324263 0 0 Z " fill="#EC8130" transform="translate(1222,411)"/>
<path d="M0 0 C1.32 0 2.64 0 4 0 C3.54636829 1.58468677 3.08688548 3.16769924 2.625 4.75 C2.36976562 5.63171875 2.11453125 6.5134375 1.8515625 7.421875 C1.0790066 9.76080572 0.16374324 11.83442562 -1 14 C-1 13.01 -1 12.02 -1 11 C-3.97 10.505 -3.97 10.505 -7 10 C-6.02223933 8.51990357 -5.0427506 7.04094856 -4.0625 5.5625 C-3.51722656 4.73878906 -2.97195313 3.91507812 -2.41015625 3.06640625 C-1 1 -1 1 0 0 Z " fill="#F9B26B" transform="translate(1110,347)"/>
<path d="M0 0 C3.465 1.98 3.465 1.98 7 4 C6.67 6.97 6.34 9.94 6 13 C5.46375 12.566875 4.9275 12.13375 4.375 11.6875 C1.95371304 9.87104567 1.95371304 9.87104567 -1.1875 8.4375 C-4 7 -4 7 -5 5 C-4.360625 4.731875 -3.72125 4.46375 -3.0625 4.1875 C-0.66868314 3.11332248 -0.66868314 3.11332248 0 0 Z " fill="#61615A" transform="translate(1090,409)"/>
<path d="M0 0 C0 0.66 0 1.32 0 2 C0.99 2.66 1.98 3.32 3 4 C0.39761763 4.41626139 -2.20465765 4.80854441 -4.8125 5.1875 C-5.55048828 5.30802734 -6.28847656 5.42855469 -7.04882812 5.55273438 C-12.53288581 6.32199134 -12.53288581 6.32199134 -15.01171875 4.61328125 C-16 3 -16 3 -16 2 C-10.61972975 0.80911014 -5.54708616 -0.2919519 0 0 Z " fill="#42617F" transform="translate(753,434)"/>
<path d="M0 0 C2.6875 0.3125 2.6875 0.3125 5 1 C5.625 2.8125 5.625 2.8125 6 5 C5.01 6.485 5.01 6.485 4 8 C1.625 7.75 1.625 7.75 -1 7 C-2.3125 4.9375 -2.3125 4.9375 -3 3 C-1.8125 1.4375 -1.8125 1.4375 0 0 Z " fill="#EA7F2B" transform="translate(1005,436)"/>
<path d="M0 0 C0.66 0.33 1.32 0.66 2 1 C1 4 1 4 -0.71826172 4.90722656 C-1.81291748 5.27025879 -1.81291748 5.27025879 -2.9296875 5.640625 C-3.72503906 5.90617187 -4.52039063 6.17171875 -5.33984375 6.4453125 C-6.59474609 6.84363281 -6.59474609 6.84363281 -7.875 7.25 C-9.11830078 7.67152344 -9.11830078 7.67152344 -10.38671875 8.1015625 C-16.60632653 10.13122449 -16.60632653 10.13122449 -20 9 C-15.27901937 6.5487216 -10.51032899 4.294666 -5.625 2.1875 C-4.60664062 1.74792969 -3.58828125 1.30835938 -2.5390625 0.85546875 C-1.70117188 0.57316406 -0.86328125 0.29085938 0 0 Z " fill="#F09552" transform="translate(530,472)"/>
<path d="M0 0 C1.2065625 0.0309375 1.2065625 0.0309375 2.4375 0.0625 C3.0625 2.4375 3.0625 2.4375 3.4375 5.0625 C2.7775 5.7225 2.1175 6.3825 1.4375 7.0625 C-0.6875 6.6875 -0.6875 6.6875 -2.5625 6.0625 C-2.94468767 4.40635343 -3.27645102 2.73792976 -3.5625 1.0625 C-2.5625 0.0625 -2.5625 0.0625 0 0 Z " fill="#EE8534" transform="translate(1230.5625,339.9375)"/>
<path d="M0 0 C0.33 1.65 0.66 3.3 1 5 C-1.31 5.66 -3.62 6.32 -6 7 C-6.33 6.01 -6.66 5.02 -7 4 C-7.66 3.34 -8.32 2.68 -9 2 C-3.375 0 -3.375 0 0 0 Z " fill="#EE9048" transform="translate(564,460)"/>
<path d="M0 0 C7.50769231 -0.36923077 7.50769231 -0.36923077 10 1.5 C10.495 2.2425 10.495 2.2425 11 3 C8.59454362 4.20272819 7.05003047 4.10071472 4.375 4.0625 C3.14910156 4.04896484 3.14910156 4.04896484 1.8984375 4.03515625 C0.95871094 4.01775391 0.95871094 4.01775391 0 4 C-0.33 3.34 -0.66 2.68 -1 2 C-0.67 1.34 -0.34 0.68 0 0 Z " fill="#204467" transform="translate(753,433)"/>
<path d="M0 0 C-0.99 1.485 -0.99 1.485 -2 3 C-1.01 3.66 -0.02 4.32 1 5 C-0.60517097 4.91266424 -2.20921662 4.80447776 -3.8125 4.6875 C-5.15248047 4.60048828 -5.15248047 4.60048828 -6.51953125 4.51171875 C-9.30604 3.93686419 -10.24135754 3.1793144 -12 1 C-7.93631321 0.22596442 -4.13574827 -0.0984702 0 0 Z " fill="#375877" transform="translate(769,431)"/>
<path d="M0 0 C0 3 0 3 -1.75 5.04296875 C-2.4925 5.75066406 -3.235 6.45835937 -4 7.1875 C-4.7425 7.90292969 -5.485 8.61835938 -6.25 9.35546875 C-6.8275 9.89816406 -7.405 10.44085938 -8 11 C-8.99 10.67 -9.98 10.34 -11 10 C-9.54474941 8.51780033 -8.085701 7.03932861 -6.625 5.5625 C-5.81289062 4.73878906 -5.00078125 3.91507812 -4.1640625 3.06640625 C-2 1 -2 1 0 0 Z " fill="#E78335" transform="translate(1040,404)"/>
<path d="M0 0 C1.32 0 2.64 0 4 0 C4 0.66 4 1.32 4 2 C5.65 2 7.3 2 9 2 C7 4 7 4 4.6171875 4.1953125 C3.71226562 4.17210937 2.80734375 4.14890625 1.875 4.125 C0.50988281 4.09792969 0.50988281 4.09792969 -0.8828125 4.0703125 C-1.58148437 4.04710937 -2.28015625 4.02390625 -3 4 C-1.75 2 -1.75 2 0 0 Z " fill="#1D4060" transform="translate(769,431)"/>
<path d="M0 0 C-1 3 -1 3 -3 4 C-5.3329866 4.04022391 -7.66706666 4.04320247 -10 4 C-9.67 3.01 -9.34 2.02 -9 1 C-6.04335481 -0.4783226 -3.25770263 -0.06032783 0 0 Z " fill="#24496C" transform="translate(741,437)"/>
<path d="M0 0 C0.66 0 1.32 0 2 0 C0.34908222 4.29238623 -2.73754566 6.8793915 -6 10 C-6.66 9.67 -7.32 9.34 -8 9 C-6.85459775 7.68712379 -5.70866567 6.37470979 -4.5625 5.0625 C-3.92441406 4.33160156 -3.28632813 3.60070312 -2.62890625 2.84765625 C-1.77458541 1.87860647 -0.91348825 0.91348825 0 0 Z " fill="#304766" transform="translate(472,545)"/>
<path d="M0 0 C-1.38188453 3.21043882 -2.92421903 5.04936365 -5.625 7.25 C-6.57246094 8.03117188 -6.57246094 8.03117188 -7.5390625 8.828125 C-8.02117188 9.21484375 -8.50328125 9.6015625 -9 10 C-8.42110619 6.71245489 -7.45171589 5.06327505 -5.0625 2.75 C-4.53785156 2.22921875 -4.01320313 1.7084375 -3.47265625 1.171875 C-2 0 -2 0 0 0 Z " fill="#2D4362" transform="translate(586,543)"/>
<path d="M0 0 C2.475 0.495 2.475 0.495 5 1 C5.33 1.99 5.66 2.98 6 4 C4.02 4.66 2.04 5.32 0 6 C0 4.02 0 2.04 0 0 Z " fill="#D05B19" transform="translate(1089,418)"/>
<path d="M0 0 C-3.11910856 1.79275866 -5.67682428 2.34290718 -9.25 2.625 C-10.14203125 2.69976562 -11.0340625 2.77453125 -11.953125 2.8515625 C-12.62859375 2.90054687 -13.3040625 2.94953125 -14 3 C-10.12243665 -0.87756335 -5.14086064 -1.55783656 0 0 Z " fill="#4B6381" transform="translate(670,454)"/>
<path d="M0 0 C-1 2 -1 2 -2.625 2.625 C-5.7660575 3.12095645 -8.82601831 3.06103811 -12 3 C-8.2391768 -0.7608232 -5.0273023 -0.25136512 0 0 Z " fill="#244366" transform="translate(705,445)"/>
<path d="M0 0 C-0.66 0.66 -1.32 1.32 -2 2 C-2 2.66 -2 3.32 -2 4 C-4.97 3.505 -4.97 3.505 -8 3 C-8.33 2.01 -8.66 1.02 -9 0 C-5.62182575 -0.84454356 -3.32534757 -1.10844919 0 0 Z " fill="#486785" transform="translate(746,436)"/>
<path d="M0 0 C0 0.66 0 1.32 0 2 C-1.65071396 3.02611949 -3.31970006 4.02308143 -5 5 C-5.556875 5.556875 -6.11375 6.11375 -6.6875 6.6875 C-7.120625 7.120625 -7.55375 7.55375 -8 8 C-8.66 8 -9.32 8 -10 8 C-8.48502075 3.75805811 -4.70198172 0 0 0 Z " fill="#E6873D" transform="translate(1125,382)"/>
<path d="M0 0 C0.99 0.33 1.98 0.66 3 1 C2.67 1.99 2.34 2.98 2 4 C-0.64 4.33 -3.28 4.66 -6 5 C-2.25 1.125 -2.25 1.125 0 0 Z " fill="#F18A39" transform="translate(535,470)"/>
<path d="M0 0 C0 1.32 0 2.64 0 4 C-1.65 4 -3.3 4 -5 4 C-5 3.34 -5 2.68 -5 2 C-6.32 1.67 -7.64 1.34 -9 1 C-5.94152152 0.45627049 -3.11227195 0 0 0 Z " fill="#3A5B79" transform="translate(732,438)"/>
<path d="M0 0 C2 3 2 3 1.625 5.6875 C1.41875 6.450625 1.2125 7.21375 1 8 C-0.32 6.68 -1.64 5.36 -3 4 C-2.01 2.68 -1.02 1.36 0 0 Z " fill="#F9ECDB" transform="translate(1074,384)"/>
<path d="M0 0 C1.32 0.66 2.64 1.32 4 2 C3.67 2.66 3.34 3.32 3 4 C0.67843403 4.40729228 -1.6568787 4.74438677 -4 5 C-2.68 3.35 -1.36 1.7 0 0 Z " fill="#EA7F2E" transform="translate(555,463)"/>
<path d="M0 0 C-0.99 0.495 -0.99 0.495 -2 1 C-2 1.66 -2 2.32 -2 3 C-3.98 3.33 -5.96 3.66 -8 4 C-8 3.01 -8 2.02 -8 1 C-5.07175348 0.02391783 -3.04386724 -0.08226668 0 0 Z " fill="#193D63" transform="translate(751,435)"/>
<path d="M0 0 C2.475 0.99 2.475 0.99 5 2 C4.01 2.495 4.01 2.495 3 3 C2.34 2.67 1.68 2.34 1 2 C0.71125 2.639375 0.4225 3.27875 0.125 3.9375 C-1 6 -1 6 -3 7 C-1.125 1.125 -1.125 1.125 0 0 Z " fill="#245072" transform="translate(1145,468)"/>
<path d="M0 0 C1.98 0.99 1.98 0.99 4 2 C2.25 5.875 2.25 5.875 0 7 C0 4.69 0 2.38 0 0 Z " fill="#E18035" transform="translate(1062,392)"/>
</svg>
